<svg width="18" height="24" viewBox="0 0 18 24" fill="none" xmlns="http://www.w3.org/2000/svg">
<path d="M6.85714 11.1429C6.85714 10.9155 6.94745 10.6975 7.10819 10.5368C7.26894 10.376 7.48696 10.2857 7.71429 10.2857H12.8571C13.0845 10.2857 13.3025 10.376 13.4632 10.5368C13.624 10.6975 13.7143 10.9155 13.7143 11.1429C13.7143 11.3702 13.624 11.5882 13.4632 11.7489C13.3025 11.9097 13.0845 12 12.8571 12H7.71429C7.48696 12 7.26894 11.9097 7.10819 11.7489C6.94745 11.5882 6.85714 11.3702 6.85714 11.1429ZM6.85714 16.2857C6.85714 16.0584 6.94745 15.8404 7.10819 15.6796C7.26894 15.5189 7.48696 15.4286 7.71429 15.4286H12.8571C13.0845 15.4286 13.3025 15.5189 13.4632 15.6796C13.624 15.8404 13.7143 16.0584 13.7143 16.2857C13.7143 16.513 13.624 16.7311 13.4632 16.8918C13.3025 17.0526 13.0845 17.1429 12.8571 17.1429H7.71429C7.48696 17.1429 7.26894 17.0526 7.10819 16.8918C6.94745 16.7311 6.85714 16.513 6.85714 16.2857ZM4.28571 12C4.51304 12 4.73106 11.9097 4.89181 11.7489C5.05255 11.5882 5.14286 11.3702 5.14286 11.1429C5.14286 10.9155 5.05255 10.6975 4.89181 10.5368C4.73106 10.376 4.51304 10.2857 4.28571 10.2857C4.05839 10.2857 3.84037 10.376 3.67962 10.5368C3.51888 10.6975 3.42857 10.9155 3.42857 11.1429C3.42857 11.3702 3.51888 11.5882 3.67962 11.7489C3.84037 11.9097 4.05839 12 4.28571 12ZM4.28571 17.1429C4.51304 17.1429 4.73106 17.0526 4.89181 16.8918C5.05255 16.7311 5.14286 16.513 5.14286 16.2857C5.14286 16.0584 5.05255 15.8404 4.89181 15.6796C4.73106 15.5189 4.51304 15.4286 4.28571 15.4286C4.05839 15.4286 3.84037 15.5189 3.67962 15.6796C3.51888 15.8404 3.42857 16.0584 3.42857 16.2857C3.42857 16.513 3.51888 16.7311 3.67962 16.8918C3.84037 17.0526 4.05839 17.1429 4.28571 17.1429ZM3.57429 1.71429C3.75161 1.21272 4.08014 0.778506 4.51459 0.471477C4.94903 0.164448 5.46801 -0.000278537 6 3.53549e-07H11.1429C11.6748 -0.000278537 12.1938 0.164448 12.6283 0.471477C13.0627 0.778506 13.3912 1.21272 13.5686 1.71429H14.5714C15.2534 1.71429 15.9075 1.9852 16.3897 2.46744C16.8719 2.94968 17.1429 3.60373 17.1429 4.28571V21.4286C17.1429 22.1106 16.8719 22.7646 16.3897 23.2468C15.9075 23.7291 15.2534 24 14.5714 24H2.57143C1.88944 24 1.23539 23.7291 0.753154 23.2468C0.270918 22.7646 0 22.1106 0 21.4286V4.28571C0 3.60373 0.270918 2.94968 0.753154 2.46744C1.23539 1.9852 1.88944 1.71429 2.57143 1.71429H3.57429ZM6 1.71429C5.77267 1.71429 5.55465 1.80459 5.39391 1.96534C5.23316 2.12608 5.14286 2.3441 5.14286 2.57143C5.14286 2.79876 5.23316 3.01677 5.39391 3.17752C5.55465 3.33827 5.77267 3.42857 6 3.42857H11.1429C11.3702 3.42857 11.5882 3.33827 11.7489 3.17752C11.9097 3.01677 12 2.79876 12 2.57143C12 2.3441 11.9097 2.12608 11.7489 1.96534C11.5882 1.80459 11.3702 1.71429 11.1429 1.71429H6ZM3.57429 3.42857H2.57143C2.3441 3.42857 2.12608 3.51888 1.96534 3.67962C1.80459 3.84037 1.71429 4.05839 1.71429 4.28571V21.4286C1.71429 21.6559 1.80459 21.8739 1.96534 22.0347C2.12608 22.1954 2.3441 22.2857 2.57143 22.2857H14.5714C14.7988 22.2857 15.0168 22.1954 15.1775 22.0347C15.3383 21.8739 15.4286 21.6559 15.4286 21.4286V4.28571C15.4286 4.05839 15.3383 3.84037 15.1775 3.67962C15.0168 3.51888 14.7988 3.42857 14.5714 3.42857H13.5686C13.3912 3.93013 13.0627 4.36435 12.6283 4.67138C12.1938 4.97841 11.6748 5.14314 11.1429 5.14286H6C5.46801 5.14314 4.94903 4.97841 4.51459 4.67138C4.08014 4.36435 3.75161 3.93013 3.57429 3.42857Z" fill="#1E1838"/>
</svg>
