<svg width="20" height="22" viewBox="0 0 20 22" fill="none" xmlns="http://www.w3.org/2000/svg">
<path d="M5 3.5H3C2.46957 3.5 1.96086 3.71071 1.58579 4.08579C1.21071 4.46086 1 4.96957 1 5.5V17.5C1 18.0304 1.21071 18.5391 1.58579 18.9142C1.96086 19.2893 2.46957 19.5 3 19.5H8.697M15 12.5V16.5H19M15 9.5V5.5C15 4.96957 14.7893 4.46086 14.4142 4.08579C14.0391 3.71071 13.5304 3.5 13 3.5H11" stroke="#F5F7FC" stroke-width="1.5" stroke-linecap="round" stroke-linejoin="round"/>
<path d="M9 1.5H7C5.89543 1.5 5 2.39543 5 3.5C5 4.60457 5.89543 5.5 7 5.5H9C10.1046 5.5 11 4.60457 11 3.5C11 2.39543 10.1046 1.5 9 1.5Z" stroke="#F5F7FC" stroke-width="1.5" stroke-linecap="round" stroke-linejoin="round"/>
<path d="M15 20.5C17.2091 20.5 19 18.7091 19 16.5C19 14.2909 17.2091 12.5 15 12.5C12.7909 12.5 11 14.2909 11 16.5C11 18.7091 12.7909 20.5 15 20.5Z" stroke="#F5F7FC" stroke-width="1.5" stroke-linecap="round" stroke-linejoin="round"/>
<path d="M5 9.5H9M5 13.5H8" stroke="#F5F7FC" stroke-width="1.5" stroke-linecap="round" stroke-linejoin="round"/>
</svg>
