<svg width="20" height="26" viewBox="0 0 20 26" fill="none" xmlns="http://www.w3.org/2000/svg">
<path d="M18.7961 21.7138L18.7965 21.7138C19.0583 21.7129 19.309 21.6082 19.4937 21.4228C19.6785 21.2374 19.7822 20.9864 19.7822 20.7246V8.27811C19.7835 8.14793 19.759 8.01877 19.7102 7.89809C19.6612 7.77724 19.5888 7.66729 19.4971 7.57461C19.4054 7.48194 19.2962 7.40836 19.1759 7.35815C19.0555 7.30795 18.9265 7.2821 18.7961 7.2821H15.7881C15.7027 7.2821 15.6208 7.31604 15.5604 7.37644C15.5 7.43685 15.466 7.51877 15.466 7.6042V15.551H5.1912V7.6133C5.1912 7.52787 5.15727 7.44594 5.09686 7.38554C5.03646 7.32514 4.95453 7.2912 4.86911 7.2912H1.86115C1.59961 7.2912 1.34878 7.3951 1.16384 7.58004C0.978898 7.76498 0.875 8.01581 0.875 8.27735V20.7246C0.874998 20.9864 0.978739 21.2374 1.1635 21.4228C1.34825 21.6082 1.59897 21.7129 1.86071 21.7138H1.86115L18.7961 21.7138ZM1.86113 7.92629H1.86115H4.55005V15.8579C4.55005 15.9433 4.58398 16.0252 4.64439 16.0856C4.70479 16.1461 4.78672 16.18 4.87214 16.18H15.7881C15.8735 16.18 15.9555 16.1461 16.0159 16.0856C16.0763 16.0252 16.1102 15.9433 16.1102 15.8579V7.93539H18.7961C18.8868 7.93539 18.9738 7.97142 19.0379 8.03555C19.102 8.09968 19.138 8.18666 19.138 8.27735V20.7246C19.138 20.8157 19.102 20.9031 19.0378 20.9678C18.9737 21.0323 18.8866 21.0689 18.7957 21.0696H1.86155C1.77059 21.0689 1.68357 21.0323 1.61945 20.9678C1.55523 20.9031 1.51919 20.8157 1.51919 20.7246V8.27735H1.51921L1.51916 8.27492C1.51828 8.22945 1.52647 8.18427 1.54326 8.14201C1.56005 8.09975 1.58509 8.06126 1.61694 8.02879C1.64878 7.99633 1.68678 7.97055 1.72871 7.95295C1.77063 7.93535 1.81565 7.92628 1.86113 7.92629Z" fill="#1E1838" stroke="#1E1838" stroke-width="0.25"/>
<path d="M12.553 23.9671V23.9667H8.11456H8.11382V23.8417C8.08495 23.8421 8.05636 23.836 8.03013 23.824C8.0039 23.8119 7.9807 23.7941 7.9622 23.772L12.553 23.9671ZM12.553 23.9671L12.5626 23.9664C12.6437 23.9601 12.7194 23.9234 12.7745 23.8637C12.8271 23.8067 12.8573 23.7328 12.8598 23.6555C12.865 23.6189 12.8645 23.5817 12.8582 23.5452L12.5066 21.3388L12.5066 21.3387L12.3832 21.3583L12.553 23.9671ZM7.80217 23.7327C7.81491 23.7769 7.83695 23.8178 7.86682 23.8528L12.1884 21.0696L8.47162 21.0696L8.4715 21.0696C8.39557 21.0697 8.32212 21.0966 8.2641 21.1455C8.20607 21.1945 8.16721 21.2624 8.15436 21.3372L8.15435 21.3372L8.15412 21.3386L7.79329 23.5946L7.79328 23.5946L7.7931 23.5958C7.78625 23.6416 7.78934 23.6883 7.80217 23.7327ZM12.1694 23.3134H8.4906L8.74516 21.7047H11.907L12.1694 23.3134Z" fill="#1E1838" stroke="#1E1838" stroke-width="0.25"/>
<path d="M6.6761 25.125H13.9807C14.023 25.125 14.0649 25.1167 14.104 25.1005C14.1431 25.0843 14.1786 25.0606 14.2085 25.0307C14.2384 25.0008 14.2621 24.9652 14.2783 24.9262C14.2945 24.8871 14.3028 24.8452 14.3028 24.8029V23.6446C14.3028 23.5592 14.2689 23.4773 14.2085 23.4168C14.1481 23.3564 14.0661 23.3225 13.9807 23.3225H6.6761C6.59067 23.3225 6.50875 23.3564 6.44834 23.4168C6.38794 23.4773 6.354 23.5592 6.354 23.6446V24.8029C6.354 24.8452 6.36234 24.8871 6.37852 24.9262C6.39471 24.9652 6.41843 25.0008 6.44834 25.0307C6.47825 25.0606 6.51376 25.0843 6.55284 25.1005C6.59192 25.1167 6.6338 25.125 6.6761 25.125ZM13.6586 23.9667V24.4808H6.99819V23.9667H13.6586Z" fill="#1E1838" stroke="#1E1838" stroke-width="0.25"/>
<path d="M1.19709 18.8756H19.4601C19.5456 18.8756 19.6275 18.8417 19.6879 18.7813C19.7483 18.7209 19.7822 18.639 19.7822 18.5535C19.7822 18.4681 19.7483 18.3862 19.6879 18.3258C19.6275 18.2654 19.5456 18.2314 19.4601 18.2314H1.19709C1.11167 18.2314 1.02974 18.2654 0.969339 18.3258C0.908935 18.3862 0.875 18.4681 0.875 18.5535C0.875 18.639 0.908935 18.7209 0.969339 18.7813C1.02974 18.8417 1.11167 18.8756 1.19709 18.8756Z" fill="#1E1838" stroke="#1E1838" stroke-width="0.25"/>
<path d="M11.3134 19.9731V19.9726C11.3134 19.7782 11.2557 19.5881 11.1477 19.4264C11.0397 19.2648 10.8862 19.1387 10.7065 19.0643C10.5269 18.9899 10.3292 18.9705 10.1385 19.0084C9.94778 19.0463 9.77261 19.14 9.63512 19.2775C9.49763 19.4149 9.40399 19.5901 9.36606 19.7808C9.32812 19.9715 9.34759 20.1692 9.422 20.3488C9.49641 20.5285 9.62242 20.682 9.7841 20.7901C9.94577 20.8981 10.1358 20.9557 10.3303 20.9557V20.8307L10.3307 20.9557C10.5911 20.9548 10.8405 20.851 11.0246 20.6669C11.2087 20.4828 11.3125 20.2334 11.3134 19.9731ZM10.3303 19.6337H10.4176C10.4325 19.6377 10.447 19.6428 10.4612 19.6489C10.5029 19.6666 10.5406 19.6924 10.5722 19.7249C10.6039 19.7573 10.6287 19.7957 10.6454 19.8378C10.662 19.8799 10.6701 19.9249 10.6692 19.9702L10.6692 19.9702V19.9726C10.6692 20.0397 10.6493 20.1052 10.6121 20.1609C10.5749 20.2167 10.5219 20.2601 10.46 20.2857C10.3981 20.3114 10.3299 20.3181 10.2642 20.305C10.1984 20.292 10.138 20.2597 10.0906 20.2123C10.0432 20.1649 10.0109 20.1045 9.99787 20.0387C9.98479 19.973 9.9915 19.9048 10.0172 19.8429C10.0428 19.781 10.0863 19.7281 10.142 19.6908C10.1977 19.6536 10.2633 19.6337 10.3303 19.6337Z" fill="#1E1838" stroke="#1E1838" stroke-width="0.25"/>
<path d="M4.97145 16.1951H4.86898C4.78355 16.1951 4.70163 16.1612 4.64122 16.1008C4.58082 16.0404 4.54688 15.9585 4.54688 15.873V3.92664V3.92609H4.67188C4.6716 3.89841 4.67744 3.87102 4.68897 3.84586C4.7005 3.8207 4.71745 3.7984 4.73859 3.78054L4.97145 16.1951ZM4.97145 16.1951L4.97449 16.18M4.97145 16.1951L4.97449 16.18M4.97449 16.18H15.788C15.8734 16.18 15.9553 16.146 16.0157 16.0856C16.0762 16.0252 16.1101 15.9433 16.1101 15.8579V1.19709C16.1101 1.11167 16.0762 1.02974 16.0157 0.969339C15.9553 0.908935 15.8734 0.875 15.788 0.875L7.86481 0.874999L7.8644 0.875001C7.7843 0.875263 7.70712 0.905084 7.64765 0.958745L7.64765 0.958744L7.64717 0.959182L4.65591 3.68678L4.97449 16.18ZM15.4659 15.5509H5.19107V4.06624L7.98899 1.51919H15.4659V15.5509Z" fill="#1E1838" stroke="#1E1838" stroke-width="0.25"/>
<path d="M7.51643 11.5952H13.2776C13.3631 11.5952 13.445 11.5613 13.5054 11.5009C13.5658 11.4405 13.5997 11.3586 13.5997 11.2731C13.5997 11.1877 13.5658 11.1058 13.5054 11.0454C13.445 10.985 13.3631 10.951 13.2776 10.951H7.51643C7.43101 10.951 7.34908 10.985 7.28867 11.0454C7.22827 11.1058 7.19434 11.1877 7.19434 11.2731C7.19434 11.3586 7.22827 11.4405 7.28867 11.5009C7.34908 11.5613 7.43101 11.5952 7.51643 11.5952Z" fill="#1E1838" stroke="#1E1838" stroke-width="0.25"/>
<path d="M7.51936 13.9483H10.7032C10.7886 13.9483 10.8705 13.9143 10.9309 13.8539C10.9913 13.7935 11.0253 13.7116 11.0253 13.6262C11.0253 13.5407 10.9913 13.4588 10.9309 13.3984C10.8705 13.338 10.7886 13.3041 10.7032 13.3041H7.51936C7.43394 13.3041 7.35201 13.338 7.2916 13.3984C7.2312 13.4588 7.19727 13.5407 7.19727 13.6262C7.19727 13.7116 7.2312 13.7935 7.2916 13.8539C7.35201 13.9143 7.43394 13.9483 7.51936 13.9483Z" fill="#1E1838" stroke="#1E1838" stroke-width="0.25"/>
<path d="M4.86709 4.24818L4.86709 4.24817C4.78256 4.2469 4.70186 4.21275 4.64208 4.15298C4.5823 4.0932 4.54816 4.0125 4.54689 3.92797L4.54686 3.92609C4.54688 3.84066 4.58081 3.75874 4.64121 3.69833C4.70151 3.63804 4.78325 3.60412 4.86851 3.604L4.86816 3.604L4.86897 3.729V3.604L4.86709 4.24818ZM4.86709 4.24818H4.86897M4.86709 4.24818H4.86897M4.86897 4.24818L4.87503 4.24819L4.87579 4.24818M4.86897 4.24818L4.87579 4.24818M4.87579 4.24818L7.86783 4.22999M4.87579 4.24818L7.86783 4.22999M7.86783 4.22999V4.10499L7.86859 4.22999L7.86824 4.22999L7.86783 4.22999ZM7.54574 3.58661V3.7108H7.67074V3.71078L7.66993 3.5858L7.54574 3.58661Z" fill="#1E1838" stroke="#1E1838" stroke-width="0.25"/>
<path d="M7.51936 7.25002H13.414C13.4994 7.25002 13.5813 7.21609 13.6417 7.15568C13.7021 7.09528 13.7361 7.01335 13.7361 6.92793C13.7361 6.8425 13.7021 6.76058 13.6417 6.70017C13.5813 6.63977 13.4994 6.60583 13.414 6.60583H7.51936C7.43394 6.60583 7.35201 6.63977 7.2916 6.70017C7.2312 6.76058 7.19727 6.8425 7.19727 6.92793C7.19727 7.01335 7.2312 7.09528 7.2916 7.15568C7.35201 7.21609 7.43393 7.25002 7.51936 7.25002Z" fill="#1E1838" stroke="#1E1838" stroke-width="0.25"/>
<path d="M7.51936 9.61526H12.2496C12.335 9.61526 12.417 9.58132 12.4774 9.52092C12.5378 9.46051 12.5717 9.37859 12.5717 9.29316C12.5717 9.20774 12.5378 9.12581 12.4774 9.06541C12.417 9.005 12.335 8.97107 12.2496 8.97107H7.51936C7.43394 8.97107 7.35201 9.005 7.2916 9.06541C7.2312 9.12581 7.19727 9.20774 7.19727 9.29316C7.19727 9.37859 7.2312 9.46051 7.2916 9.52092C7.35201 9.58132 7.43394 9.61526 7.51936 9.61526Z" fill="#1E1838" stroke="#1E1838" stroke-width="0.25"/>
</svg>
