<svg width="24" height="24" viewBox="0 0 24 24" fill="none" xmlns="http://www.w3.org/2000/svg">
<path d="M5.33333 8.26667H10C10.2889 8.26667 10.528 8.172 10.7173 7.98267C10.9058 7.79422 11 7.55556 11 7.26667C11 6.97778 10.9058 6.73867 10.7173 6.54933C10.528 6.36089 10.2889 6.26667 10 6.26667H5.33333C5.04444 6.26667 4.80578 6.36089 4.61733 6.54933C4.428 6.73867 4.33333 6.97778 4.33333 7.26667C4.33333 7.55556 4.428 7.79422 4.61733 7.98267C4.80578 8.172 5.04444 8.26667 5.33333 8.26667ZM14.3333 19H19C19.2889 19 19.528 18.9058 19.7173 18.7173C19.9058 18.528 20 18.2889 20 18C20 17.7111 19.9058 17.4724 19.7173 17.284C19.528 17.0947 19.2889 17 19 17H14.3333C14.0444 17 13.8058 17.0947 13.6173 17.284C13.428 17.4724 13.3333 17.7111 13.3333 18C13.3333 18.2889 13.428 18.528 13.6173 18.7173C13.8058 18.9058 14.0444 19 14.3333 19ZM14.3333 15.6667H19C19.2889 15.6667 19.528 15.572 19.7173 15.3827C19.9058 15.1942 20 14.9556 20 14.6667C20 14.3778 19.9058 14.1387 19.7173 13.9493C19.528 13.7609 19.2889 13.6667 19 13.6667H14.3333C14.0444 13.6667 13.8058 13.7609 13.6173 13.9493C13.428 14.1387 13.3333 14.3778 13.3333 14.6667C13.3333 14.9556 13.428 15.1942 13.6173 15.3827C13.8058 15.572 14.0444 15.6667 14.3333 15.6667ZM7.66667 20C7.95556 20 8.19467 19.9058 8.384 19.7173C8.57244 19.528 8.66667 19.2889 8.66667 19V17.3333H10.3333C10.6222 17.3333 10.8613 17.2387 11.0507 17.0493C11.2391 16.8609 11.3333 16.6222 11.3333 16.3333C11.3333 16.0444 11.2391 15.8053 11.0507 15.616C10.8613 15.4276 10.6222 15.3333 10.3333 15.3333H8.66667V13.6667C8.66667 13.3778 8.57244 13.1387 8.384 12.9493C8.19467 12.7609 7.95556 12.6667 7.66667 12.6667C7.37778 12.6667 7.13911 12.7609 6.95067 12.9493C6.76133 13.1387 6.66667 13.3778 6.66667 13.6667V15.3333H5C4.71111 15.3333 4.47244 15.4276 4.284 15.616C4.09467 15.8053 4 16.0444 4 16.3333C4 16.6222 4.09467 16.8609 4.284 17.0493C4.47244 17.2387 4.71111 17.3333 5 17.3333H6.66667V19C6.66667 19.2889 6.76133 19.528 6.95067 19.7173C7.13911 19.9058 7.37778 20 7.66667 20ZM14.1 9.9C14.3 10.1 14.5333 10.2 14.8 10.2C15.0667 10.2 15.3 10.1 15.5 9.9L16.6667 8.73333L17.8667 9.93333C18.0444 10.1111 18.2667 10.2 18.5333 10.2C18.8 10.2 19.0333 10.1 19.2333 9.9C19.4111 9.72222 19.5 9.49422 19.5 9.216C19.5 8.93867 19.4111 8.7 19.2333 8.5L18.0667 7.26667L19.2667 6.06667C19.4444 5.88889 19.5333 5.66667 19.5333 5.4C19.5333 5.13333 19.4333 4.9 19.2333 4.7C19.0333 4.5 18.8 4.4 18.5333 4.4C18.2667 4.4 18.0333 4.5 17.8333 4.7L16.6667 5.86667L15.4667 4.66667C15.2889 4.48889 15.0667 4.4 14.8 4.4C14.5333 4.4 14.3 4.5 14.1 4.7C13.9 4.9 13.8 5.13333 13.8 5.4C13.8 5.66667 13.9 5.9 14.1 6.1L15.2667 7.26667L14.0667 8.5C13.8889 8.7 13.8 8.93333 13.8 9.2C13.8 9.46667 13.9 9.7 14.1 9.9ZM2.66667 24C1.93333 24 1.30533 23.7391 0.782667 23.2173C0.260889 22.6947 0 22.0667 0 21.3333V2.66667C0 1.93333 0.260889 1.30533 0.782667 0.782667C1.30533 0.260889 1.93333 0 2.66667 0H21.3333C22.0667 0 22.6947 0.260889 23.2173 0.782667C23.7391 1.30533 24 1.93333 24 2.66667V21.3333C24 22.0667 23.7391 22.6947 23.2173 23.2173C22.6947 23.7391 22.0667 24 21.3333 24H2.66667ZM2.66667 21.3333H21.3333V2.66667H2.66667V21.3333ZM2.66667 21.3333V2.66667V21.3333Z" fill="#1E1838"/>
</svg>
