<svg width="15" height="8" viewBox="0 0 15 8" fill="none" xmlns="http://www.w3.org/2000/svg">
<path d="M14.0013 1.66187C14.0018 1.81127 13.9688 1.95888 13.9048 2.09386C13.8407 2.22883 13.7473 2.34775 13.6313 2.44187L7.63125 7.27187C7.45232 7.41895 7.22788 7.49936 6.99625 7.49936C6.76463 7.49936 6.54018 7.41895 6.36125 7.27187L0.361252 2.27187C0.157036 2.10213 0.0286112 1.85822 0.0042315 1.5938C-0.0201482 1.32937 0.0615137 1.06609 0.231252 0.861871C0.400991 0.657655 0.644902 0.529231 0.909329 0.504851C1.17375 0.480471 1.43704 0.562132 1.64125 0.731871L7.00125 5.20187L12.3613 0.881872C12.508 0.759589 12.6868 0.681911 12.8763 0.658032C13.0659 0.634152 13.2583 0.665069 13.4308 0.747125C13.6034 0.829181 13.7488 0.958941 13.8499 1.12105C13.9509 1.28316 14.0035 1.47084 14.0013 1.66187Z" fill="white"/>
</svg>
