<svg width="31" height="25" viewBox="0 0 31 25" fill="none" xmlns="http://www.w3.org/2000/svg">
<path d="M3.89389 15.2604L1.53685 12.9033L3.89389 10.5463C3.95013 10.49 3.99475 10.4233 4.02518 10.3498C4.05562 10.2763 4.07129 10.1975 4.07129 10.118C4.07129 10.0385 4.05562 9.95971 4.02518 9.88622C3.99475 9.81274 3.95013 9.74597 3.89389 9.68973C3.83765 9.63349 3.77088 9.58887 3.6974 9.55843C3.62391 9.528 3.54515 9.51233 3.46561 9.51233C3.38608 9.51233 3.30732 9.528 3.23383 9.55843C3.16035 9.58887 3.09358 9.63349 3.03734 9.68973L0.248979 12.4781C0.0120592 12.715 0.0120592 13.0977 0.248979 13.3346L3.03734 16.123C3.09354 16.1793 3.16029 16.224 3.23378 16.2545C3.30727 16.285 3.38605 16.3007 3.46561 16.3007C3.54517 16.3007 3.62396 16.285 3.69744 16.2545C3.77093 16.224 3.83769 16.1793 3.89389 16.123C4.12474 15.8861 4.13081 15.4973 3.89389 15.2604Z" fill="#56526A"/>
<path d="M14.0713 3.90649V21.9065H7.07129C6.80607 21.9065 6.55172 21.8011 6.36418 21.6136C6.17665 21.4261 6.07129 21.1717 6.07129 20.9065V4.90649C6.07129 4.64128 6.17665 4.38692 6.36418 4.19939C6.55172 4.01185 6.80607 3.90649 7.07129 3.90649H14.0713ZM24.0713 13.9065V20.9065C24.0713 21.1717 23.9659 21.4261 23.7784 21.6136C23.5909 21.8011 23.3365 21.9065 23.0713 21.9065H16.0713V13.9065H24.0713ZM23.0713 3.90649C23.3365 3.90649 23.5909 4.01185 23.7784 4.19939C23.9659 4.38692 24.0713 4.64128 24.0713 4.90649V11.9065H16.0713V3.90649H23.0713Z" fill="#1E1838"/>
<path d="M26.2487 10.5526L28.6057 12.9097L26.2487 15.2667C26.1924 15.3229 26.1478 15.3897 26.1174 15.4632C26.087 15.5367 26.0713 15.6154 26.0713 15.695C26.0713 15.7745 26.087 15.8533 26.1174 15.9268C26.1478 16.0002 26.1924 16.067 26.2487 16.1233C26.3049 16.1795 26.3717 16.2241 26.4452 16.2546C26.5187 16.285 26.5974 16.3007 26.677 16.3007C26.7565 16.3007 26.8353 16.285 26.9087 16.2546C26.9822 16.2241 27.049 16.1795 27.1052 16.1233L29.8936 13.3349C30.1305 13.098 30.1305 12.7153 29.8936 12.4783L27.1052 9.68999C27.049 9.63368 26.9823 9.589 26.9088 9.55851C26.8353 9.52803 26.7565 9.51234 26.677 9.51234C26.5974 9.51234 26.5186 9.52803 26.4451 9.55851C26.3716 9.589 26.3049 9.63368 26.2487 9.68999C26.0178 9.92691 26.0118 10.3157 26.2487 10.5526Z" fill="#56526A"/>
</svg>
