<svg width="20" height="26" viewBox="0 0 20 26" fill="none" xmlns="http://www.w3.org/2000/svg">
<path d="M19.7822 8.27792C19.7835 8.1478 19.759 8.01871 19.7102 7.89809C19.6612 7.77724 19.5888 7.66729 19.4971 7.57462C19.4054 7.48194 19.2962 7.40836 19.1759 7.35816C19.0555 7.30795 18.9265 7.2821 18.7961 7.2821H15.7881C15.7027 7.2821 15.6208 7.31604 15.5604 7.37644C15.5 7.43685 15.466 7.51877 15.466 7.6042V15.551H5.1912V7.6133C5.1912 7.52787 5.15727 7.44594 5.09686 7.38554L5.09686 7.38554C5.03646 7.32514 4.95453 7.2912 4.86911 7.2912H1.86115C1.59961 7.2912 1.34878 7.3951 1.16384 7.58004C0.978898 7.76498 0.875 8.01581 0.875 8.27735V20.7246C0.874998 20.9864 0.978739 21.2374 1.1635 21.4228C1.34825 21.6082 1.59897 21.7129 1.86071 21.7138H1.86115L18.7961 21.7138L18.7965 21.7138C19.0583 21.7129 19.309 21.6082 19.4937 21.4228C19.6785 21.2374 19.7822 20.9864 19.7822 20.7246V8.27792ZM19.7822 8.27792C19.7822 8.27817 19.7822 8.27842 19.7822 8.27867L19.6572 8.27735H19.7822V8.27792ZM1.86113 7.92629H1.86115H4.55005V15.8579C4.55005 15.9433 4.58398 16.0252 4.64439 16.0856C4.70479 16.1461 4.78671 16.18 4.87214 16.18H15.7881C15.8735 16.18 15.9555 16.1461 16.0159 16.0856C16.0763 16.0252 16.1102 15.9433 16.1102 15.8579V7.93539H18.7961C18.8868 7.93539 18.9738 7.97142 19.0379 8.03555C19.102 8.09968 19.138 8.18666 19.138 8.27735V20.7246C19.138 20.8157 19.102 20.9031 19.0378 20.9678C18.9737 21.0323 18.8866 21.0689 18.7957 21.0696H1.86155C1.77059 21.0689 1.68357 21.0323 1.61945 20.9678C1.55523 20.9031 1.51919 20.8157 1.51919 20.7246V8.27735H1.51921L1.51916 8.27492C1.51828 8.22945 1.52647 8.18427 1.54326 8.14201C1.56005 8.09975 1.58509 8.06126 1.61694 8.02879C1.64878 7.99633 1.68678 7.97055 1.72871 7.95295C1.77063 7.93535 1.81565 7.92628 1.86113 7.92629Z" fill="#F5F7FC" stroke="#EBF0FA" stroke-width="0.25"/>
<path d="M12.5525 23.9671V23.9667H8.11405H8.11333V23.8417C8.08446 23.8421 8.05587 23.836 8.02964 23.824C8.00341 23.8119 7.98021 23.7941 7.96172 23.772L12.5525 23.9671ZM12.5525 23.9671L12.5621 23.9664C12.6432 23.9601 12.7189 23.9234 12.774 23.8637C12.8266 23.8067 12.8568 23.7327 12.8593 23.6555C12.8645 23.6189 12.864 23.5817 12.8577 23.5452L12.5062 21.3388L12.3827 21.3583L12.5061 21.3387L12.5061 21.3387C12.4941 21.263 12.4553 21.1942 12.3968 21.1448L12.3162 21.2403C12.2805 21.2103 12.2352 21.194 12.1886 21.1946V21.0696H12.188L8.47113 21.0696L8.47101 21.0696C8.39509 21.0697 8.32163 21.0966 8.26361 21.1455C8.20558 21.1945 8.16672 21.2624 8.15387 21.3372L8.15386 21.3372L8.15364 21.3386L7.7928 23.5946L7.7928 23.5946L7.79261 23.5958C7.78576 23.6416 7.78885 23.6883 7.80168 23.7327C7.81442 23.7769 7.83647 23.8178 7.86633 23.8528L12.5525 23.9671ZM12.1689 23.3134H8.49011L8.74468 21.7047H11.9065L12.1689 23.3134Z" fill="#F5F7FC" stroke="#EBF0FA" stroke-width="0.25"/>
<path d="M14.209 23.4169L14.209 23.4168C14.1485 23.3564 14.0666 23.3225 13.9812 23.3225H6.67659C6.59116 23.3225 6.50923 23.3564 6.44883 23.4168C6.38843 23.4773 6.35449 23.5592 6.35449 23.6446V24.8029C6.35449 24.8452 6.36282 24.8871 6.37901 24.9262C6.3952 24.9652 6.41892 25.0008 6.44883 25.0307C6.47874 25.0606 6.51424 25.0843 6.55333 25.1005C6.59241 25.1167 6.63429 25.125 6.67659 25.125H13.9812C14.0235 25.125 14.0654 25.1167 14.1045 25.1005C14.1435 25.0843 14.179 25.0606 14.209 25.0307C14.2389 25.0008 14.2626 24.9652 14.2788 24.9262C14.295 24.8871 14.3033 24.8452 14.3033 24.8029V23.6446C14.3033 23.5592 14.2694 23.4773 14.209 23.4169ZM13.6591 23.9667V24.4808H6.99868V23.9667H13.6591Z" fill="#F5F7FC" stroke="#EBF0FA" stroke-width="0.25"/>
<path d="M1.19709 18.8756H19.4601C19.5456 18.8756 19.6275 18.8416 19.6879 18.7812C19.7483 18.7208 19.7822 18.6389 19.7822 18.5535C19.7822 18.4681 19.7483 18.3861 19.6879 18.3257C19.6275 18.2653 19.5456 18.2314 19.4601 18.2314H1.19709C1.11167 18.2314 1.02974 18.2653 0.969339 18.3257C0.908935 18.3861 0.875 18.4681 0.875 18.5535C0.875 18.6389 0.908935 18.7208 0.969339 18.7812C1.02974 18.8416 1.11167 18.8756 1.19709 18.8756Z" fill="#F5F7FC" stroke="#EBF0FA" stroke-width="0.25"/>
<path d="M10.3298 20.9557L10.3302 20.9557C10.5906 20.9548 10.84 20.8509 11.0241 20.6668C11.2082 20.4828 11.312 20.2333 11.3129 19.973V19.9726C11.3129 19.7781 11.2553 19.588 11.1472 19.4264C11.0392 19.2647 10.8857 19.1387 10.706 19.0643C10.5264 18.9899 10.3287 18.9704 10.138 19.0083C9.94729 19.0463 9.77212 19.1399 9.63463 19.2774C9.49714 19.4149 9.4035 19.5901 9.36557 19.7808C9.32764 19.9715 9.34711 20.1691 9.42152 20.3488C9.49593 20.5284 9.62193 20.682 9.78361 20.79C9.94528 20.898 10.1354 20.9557 10.3298 20.9557ZM10.3298 19.6336H10.4172C10.432 19.6377 10.4465 19.6427 10.4607 19.6488C10.5024 19.6665 10.5402 19.6924 10.5718 19.7248C10.6034 19.7572 10.6282 19.7956 10.6449 19.8377C10.6615 19.8798 10.6696 19.9248 10.6688 19.9701L10.6687 19.9701V19.9726C10.6687 20.0396 10.6488 20.1051 10.6116 20.1609C10.5744 20.2166 10.5214 20.26 10.4595 20.2857C10.3976 20.3113 10.3294 20.3181 10.2637 20.305C10.1979 20.2919 10.1375 20.2596 10.0901 20.2122C10.0427 20.1648 10.0105 20.1044 9.99738 20.0387C9.9843 19.9729 9.99102 19.9048 10.0167 19.8429C10.0423 19.7809 10.0858 19.728 10.1415 19.6907C10.1972 19.6535 10.2628 19.6336 10.3298 19.6336Z" fill="#F5F7FC" stroke="#EBF0FA" stroke-width="0.25"/>
<path d="M4.97145 16.1951H4.86898C4.78356 16.1951 4.70163 16.1612 4.64122 16.1008C4.58082 16.0404 4.54688 15.9585 4.54688 15.873V3.92664V3.92609H4.67188C4.6716 3.89841 4.67744 3.87102 4.68897 3.84586C4.7005 3.8207 4.71745 3.7984 4.73859 3.78054L4.97145 16.1951ZM4.97145 16.1951L4.97449 16.18H15.788C15.8734 16.18 15.9553 16.146 16.0157 16.0856C16.0762 16.0252 16.1101 15.9433 16.1101 15.8579V1.19709C16.1101 1.11167 16.0762 1.02974 16.0157 0.96934C15.9553 0.908935 15.8734 0.875 15.788 0.875L7.86481 0.874999L7.8644 0.875001C7.7843 0.875263 7.70712 0.905084 7.64765 0.958745L7.64765 0.958744L7.64717 0.959182L4.65591 3.68677L4.97145 16.1951ZM15.4659 15.5509H5.19107V4.06624L7.98899 1.51919H15.4659V15.5509Z" fill="#F5F7FC" stroke="#EBF0FA" stroke-width="0.25"/>
<path d="M7.51643 11.5952H13.2776L13.5054 11.0454C13.445 10.985 13.3631 10.951 13.2776 10.951H7.51643C7.43101 10.951 7.34908 10.985 7.28867 11.0454C7.22827 11.1058 7.19434 11.1877 7.19434 11.2731C7.19434 11.3586 7.22827 11.4405 7.28867 11.5009C7.34908 11.5613 7.43101 11.5952 7.51643 11.5952Z" fill="#F5F7FC" stroke="#EBF0FA" stroke-width="0.25"/>
<path d="M7.51936 13.9483H10.7032C10.7886 13.9483 10.8705 13.9143 10.9309 13.8539C10.9913 13.7935 11.0253 13.7116 11.0253 13.6262C11.0253 13.5407 10.9913 13.4588 10.9309 13.3984C10.8705 13.338 10.7886 13.3041 10.7032 13.3041H7.51936C7.43394 13.3041 7.35201 13.338 7.2916 13.3984C7.2312 13.4588 7.19727 13.5407 7.19727 13.6262C7.19727 13.7116 7.2312 13.7935 7.2916 13.8539C7.35201 13.9143 7.43394 13.9483 7.51936 13.9483Z" fill="#F5F7FC" stroke="#EBF0FA" stroke-width="0.25"/>
<path d="M4.86709 4.24818L4.86709 4.24817C4.78256 4.2469 4.70186 4.21275 4.64208 4.15298C4.5823 4.0932 4.54816 4.0125 4.54689 3.92797L4.54686 3.92609C4.54688 3.84066 4.58081 3.75874 4.64121 3.69833C4.70151 3.63804 4.78325 3.60412 4.86851 3.604L4.86816 3.604L4.86897 3.729V3.604L4.86709 4.24818ZM4.86709 4.24818H4.86897M4.86709 4.24818H4.86897M4.86897 4.24818L4.87503 4.24819L4.87579 4.24818M4.86897 4.24818L4.87579 4.24818M4.87579 4.24818L7.86783 4.22999M4.87579 4.24818L7.86783 4.22999M7.86783 4.22999V4.10499L7.86859 4.22999L7.86824 4.22999L7.86783 4.22999ZM7.54574 3.58661V3.7108H7.67074L7.66993 3.5858L7.54574 3.58661Z" fill="#F5F7FC" stroke="#EBF0FA" stroke-width="0.25"/>
<path d="M13.6417 6.70024L13.6417 6.70023C13.5813 6.63983 13.4994 6.6059 13.414 6.6059H7.51936C7.43394 6.6059 7.35201 6.63983 7.2916 6.70024C7.2312 6.76064 7.19727 6.84257 7.19727 6.92799C7.19727 7.01341 7.2312 7.09534 7.2916 7.15574C7.35201 7.21615 7.43393 7.25008 7.51936 7.25008H13.414C13.4994 7.25008 13.5813 7.21615 13.6417 7.15575L13.5534 7.06736L13.6417 7.15574C13.7021 7.09534 13.7361 7.01341 13.7361 6.92799C13.7361 6.84257 13.7021 6.76064 13.6417 6.70024Z" fill="#F5F7FC" stroke="#EBF0FA" stroke-width="0.25"/>
<path d="M12.4774 9.06535L12.4774 9.06535C12.417 9.00494 12.335 8.97101 12.2496 8.97101H7.51936C7.43394 8.97101 7.35201 9.00494 7.2916 9.06535C7.2312 9.12575 7.19727 9.20768 7.19727 9.2931C7.19727 9.37853 7.2312 9.46045 7.2916 9.52086C7.35201 9.58126 7.43394 9.6152 7.51936 9.6152H12.2496C12.335 9.6152 12.417 9.58126 12.4774 9.52086C12.5378 9.46045 12.5717 9.37853 12.5717 9.2931C12.5717 9.20768 12.5378 9.12575 12.4774 9.06535Z" fill="#F5F7FC" stroke="#EBF0FA" stroke-width="0.25"/>
</svg>
