<svg width="17" height="17" viewBox="0 0 17 17" fill="none" xmlns="http://www.w3.org/2000/svg">
<path d="M6.70087 5.66703L8.22754 4.28668V10.0421C8.22754 10.2013 8.29778 10.3539 8.4228 10.4665C8.54783 10.579 8.71739 10.6423 8.89421 10.6423C9.07102 10.6423 9.24059 10.579 9.36561 10.4665C9.49063 10.3539 9.56087 10.2013 9.56087 10.0421V4.28668L11.0875 5.66703C11.1495 5.72328 11.2232 5.76792 11.3045 5.79839C11.3857 5.82886 11.4729 5.84455 11.5609 5.84455C11.6489 5.84455 11.736 5.82886 11.8173 5.79839C11.8985 5.76792 11.9722 5.72328 12.0342 5.66703C12.0967 5.61123 12.1463 5.54486 12.1801 5.47172C12.214 5.39859 12.2314 5.32015 12.2314 5.24092C12.2314 5.16169 12.214 5.08325 12.1801 5.01012C12.1463 4.93698 12.0967 4.87061 12.0342 4.81481L9.36754 2.41421C9.30414 2.35958 9.22937 2.31675 9.14754 2.28818C8.98523 2.22816 8.80318 2.22816 8.64087 2.28818C8.55904 2.31675 8.48427 2.35958 8.42087 2.41421L5.75421 4.81481C5.69205 4.87077 5.64274 4.9372 5.6091 5.01031C5.57546 5.08342 5.55814 5.16178 5.55814 5.24092C5.55814 5.32006 5.57546 5.39842 5.6091 5.47153C5.64274 5.54464 5.69205 5.61107 5.75421 5.66703C5.81636 5.72298 5.89016 5.76737 5.97137 5.79765C6.05259 5.82794 6.13963 5.84352 6.22754 5.84352C6.31544 5.84352 6.40249 5.82794 6.48371 5.79765C6.56492 5.76737 6.63871 5.72298 6.70087 5.66703ZM14.8942 9.44197C14.7174 9.44197 14.5478 9.5052 14.4228 9.61775C14.2978 9.7303 14.2275 9.88295 14.2275 10.0421V12.4427C14.2275 12.6019 14.1573 12.7545 14.0323 12.8671C13.9073 12.9796 13.7377 13.0429 13.5609 13.0429H4.22754C4.05073 13.0429 3.88116 12.9796 3.75613 12.8671C3.63111 12.7545 3.56087 12.6019 3.56087 12.4427V10.0421C3.56087 9.88295 3.49063 9.7303 3.36561 9.61775C3.24059 9.5052 3.07102 9.44197 2.89421 9.44197C2.71739 9.44197 2.54783 9.5052 2.4228 9.61775C2.29778 9.7303 2.22754 9.88295 2.22754 10.0421V12.4427C2.22754 12.9202 2.43825 13.3782 2.81333 13.7158C3.1884 14.0535 3.69711 14.2432 4.22754 14.2432H13.5609C14.0913 14.2432 14.6 14.0535 14.9751 13.7158C15.3502 13.3782 15.5609 12.9202 15.5609 12.4427V10.0421C15.5609 9.88295 15.4906 9.7303 15.3656 9.61775C15.2406 9.5052 15.071 9.44197 14.8942 9.44197Z" fill="#1E1838"/>
</svg>
