<svg width="20" height="20" viewBox="0 0 20 20" fill="none" xmlns="http://www.w3.org/2000/svg">
<path d="M5 2.5H3C2.46957 2.5 1.96086 2.71071 1.58579 3.08579C1.21071 3.46086 1 3.96957 1 4.5V16.5C1 17.0304 1.21071 17.5391 1.58579 17.9142C1.96086 18.2893 2.46957 18.5 3 18.5H8.697M15 11.5V15.5H19M15 8.5V4.5C15 3.96957 14.7893 3.46086 14.4142 3.08579C14.0391 2.71071 13.5304 2.5 13 2.5H11" stroke="#F5F7FC" stroke-linecap="round" stroke-linejoin="round"/>
<path d="M9 0.5H7C5.89543 0.5 5 1.39543 5 2.5C5 3.60457 5.89543 4.5 7 4.5H9C10.1046 4.5 11 3.60457 11 2.5C11 1.39543 10.1046 0.5 9 0.5Z" stroke="#F5F7FC" stroke-linecap="round" stroke-linejoin="round"/>
<path d="M15 19.5C17.2091 19.5 19 17.7091 19 15.5C19 13.2909 17.2091 11.5 15 11.5C12.7909 11.5 11 13.2909 11 15.5C11 17.7091 12.7909 19.5 15 19.5Z" stroke="#F5F7FC" stroke-linecap="round" stroke-linejoin="round"/>
<path d="M5 8.5H9M5 12.5H8" stroke="#F5F7FC" stroke-linecap="round" stroke-linejoin="round"/>
</svg>
