<svg width="43" height="40" viewBox="0 0 43 40" fill="none" xmlns="http://www.w3.org/2000/svg">
<path d="M13 10C12.2044 10 11.4413 10.2596 10.8787 10.7218C10.3161 11.1839 10 11.8107 10 12.4643V14.9286C10 15.5821 10.3161 16.2089 10.8787 16.6711C11.4413 17.1332 12.2044 17.3929 13 17.3929H25C25.7956 17.3929 26.5587 17.1332 27.1213 16.6711C27.6839 16.2089 28 15.5821 28 14.9286V12.4643C28 11.8107 27.6839 11.1839 27.1213 10.7218C26.5587 10.2596 25.7956 10 25 10H13ZM11.5 12.4643C11.5 12.1375 11.658 11.8241 11.9393 11.593C12.2206 11.362 12.6022 11.2321 13 11.2321H25C25.3978 11.2321 25.7794 11.362 26.0607 11.593C26.342 11.8241 26.5 12.1375 26.5 12.4643V14.9286C26.5 15.2554 26.342 15.5688 26.0607 15.7998C25.7794 16.0309 25.3978 16.1607 25 16.1607H13C12.6022 16.1607 12.2206 16.0309 11.9393 15.7998C11.658 15.5688 11.5 15.2554 11.5 14.9286V12.4643ZM16 24.1696C15.8011 24.1696 15.6103 24.2345 15.4697 24.3501C15.329 24.4656 15.25 24.6223 15.25 24.7857C15.25 24.9491 15.329 25.1058 15.4697 25.2213C15.6103 25.3369 15.8011 25.4018 16 25.4018H22C22.1989 25.4018 22.3897 25.3369 22.5303 25.2213C22.671 25.1058 22.75 24.9491 22.75 24.7857C22.75 24.6223 22.671 24.4656 22.5303 24.3501C22.3897 24.2345 22.1989 24.1696 22 24.1696H16ZM23.3185 19.8571H13C12.2044 19.8571 11.4413 20.1168 10.8787 20.5789C10.3161 21.0411 10 21.6679 10 22.3214V27.25C10 27.9036 10.3161 28.5304 10.8787 28.9925C11.4413 29.4547 12.2044 29.7143 13 29.7143H25C25.7956 29.7143 26.5587 29.4547 27.1213 28.9925C27.6839 28.5304 28 27.9036 28 27.25V25.9131C27.5146 26.0535 26.9854 26.0535 26.5 25.9131V27.25C26.5 27.5768 26.342 27.8902 26.0607 28.1213C25.7794 28.3523 25.3978 28.4821 25 28.4821H13C12.6022 28.4821 12.2206 28.3523 11.9393 28.1213C11.658 27.8902 11.5 27.5768 11.5 27.25V22.3214C11.5 21.9946 11.658 21.6812 11.9393 21.4502C12.2206 21.2191 12.6022 21.0893 13 21.0893H22.1275C22.2392 20.8295 22.4207 20.5936 22.6585 20.3993L23.3185 19.8571ZM32.5 16.7768C32.5 16.6134 32.421 16.4567 32.2803 16.3412C32.1397 16.2256 31.9489 16.1607 31.75 16.1607C31.5511 16.1607 31.3603 16.2256 31.2197 16.3412C31.079 16.4567 31 16.6134 31 16.7768V19.2411C31 19.7312 30.7629 20.2013 30.341 20.548C29.919 20.8946 29.3467 21.0893 28.75 21.0893H26.0605L27.781 19.6772C27.9218 19.5616 28.0009 19.4047 28.0009 19.2411C28.0009 19.0775 27.9218 18.9206 27.781 18.8049C27.6402 18.6892 27.4492 18.6242 27.25 18.6242C27.0508 18.6242 26.8598 18.6892 26.719 18.8049L23.719 21.2692C23.6492 21.3264 23.5937 21.3944 23.5559 21.4692C23.5181 21.5441 23.4987 21.6243 23.4987 21.7054C23.4987 21.7864 23.5181 21.8666 23.5559 21.9415C23.5937 22.0163 23.6492 22.0843 23.719 22.1415L26.719 24.6058C26.8598 24.7215 27.0508 24.7865 27.25 24.7865C27.4492 24.7865 27.6402 24.7215 27.781 24.6058C27.9218 24.4901 28.0009 24.3332 28.0009 24.1696C28.0009 24.006 27.9218 23.8491 27.781 23.7335L26.0605 22.3214H28.75C29.2425 22.3214 29.7301 22.2418 30.1851 22.087C30.64 21.9321 31.0534 21.7052 31.4016 21.4192C31.7499 21.1332 32.0261 20.7936 32.2145 20.4199C32.403 20.0461 32.5 19.6456 32.5 19.2411V16.7768Z" fill="#1E1838"/>
</svg>
