<svg width="16" height="15" viewBox="0 0 16 15" fill="none" xmlns="http://www.w3.org/2000/svg">
<path opacity="0.7" d="M13 8.5V7.5C13 7.23478 12.8946 6.98043 12.7071 6.79289C12.5196 6.60536 12.2652 6.5 12 6.5H2C1.73478 6.5 1.48043 6.60536 1.29289 6.79289C1.10536 6.98043 1 7.23478 1 7.5V13.5C1 13.7652 1.10536 14.0196 1.29289 14.2071C1.48043 14.3946 1.73478 14.5 2 14.5H12C12.2652 14.5 12.5196 14.3946 12.7071 14.2071C12.8946 14.0196 13 13.7652 13 13.5V12.5M13 8.5H9C8.46957 8.5 7.96086 8.71071 7.58579 9.08579C7.21071 9.46086 7 9.96957 7 10.5C7 11.0304 7.21071 11.5391 7.58579 11.9142C7.96086 12.2893 8.46957 12.5 9 12.5H13M13 8.5C13.5304 8.5 14.0391 8.71071 14.4142 9.08579C14.7893 9.46086 15 9.96957 15 10.5C15 11.0304 14.7893 11.5391 14.4142 11.9142C14.0391 12.2893 13.5304 12.5 13 12.5M4 6.5V3.5C4 2.70435 4.31607 1.94129 4.87868 1.37868C5.44129 0.81607 6.20435 0.5 7 0.5C7.79565 0.5 8.55871 0.81607 9.12132 1.37868C9.68393 1.94129 10 2.70435 10 3.5V6.5M12.5 10.5H13.5M10.5 10.5H11.5M8.5 10.5H9.5" stroke="#1E1838"/>
</svg>
