<svg width="21" height="20" viewBox="0 0 21 20" fill="none" xmlns="http://www.w3.org/2000/svg">
<path d="M16.319 13.8462V14.0571L16.4701 14.2044L18.4253 16.1084V16.4231H2.57472V16.1084L4.52989 14.2044L4.68104 14.0571V13.8462V8.71795C4.68104 5.74393 6.29114 3.3579 9.03305 2.72301L9.42026 2.63335V2.2359V1.53846C9.42026 0.975719 9.88946 0.5 10.5 0.5C11.1105 0.5 11.5797 0.975719 11.5797 1.53846V2.2359V2.63366L11.9673 2.7231C14.7183 3.35786 16.319 5.75279 16.319 8.71795V13.8462ZM14.7126 15.3718H15.2126V14.8718V8.71795C15.2126 7.34468 14.7832 6.06889 13.9673 5.12871C13.1453 4.18134 11.9534 3.60256 10.5 3.60256C9.04663 3.60256 7.85475 4.18134 7.03266 5.12871C6.2168 6.06889 5.78736 7.34468 5.78736 8.71795V14.8718V15.3718H6.28736H14.7126ZM12.0195 18.4487C11.8038 19.0526 11.2096 19.5 10.5 19.5C9.79043 19.5 9.19621 19.0526 8.98052 18.4487H12.0195ZM0.536663 7.70513C0.805969 4.94383 2.20746 2.50336 4.30136 0.815107L5.07468 1.56822C4.13832 2.30769 3.35451 3.21759 2.76835 4.24993C2.1617 5.31836 1.78081 6.49324 1.64671 7.70513H0.536663ZM15.9325 1.56859L16.6992 0.816704C18.7832 2.5047 20.184 4.94441 20.4617 7.70513H19.3525C19.2166 6.49517 18.8361 5.32221 18.2316 4.25464C17.647 3.22213 16.8658 2.31093 15.9325 1.56859Z" fill="#1E1838" stroke="#1E1838"/>
</svg>
