<svg width="48" height="48" viewBox="0 0 48 48" fill="none" xmlns="http://www.w3.org/2000/svg">
<circle cx="24" cy="24" r="24" fill="#F3F3F5"/>
<path d="M39.2268 32.3594H9.74373C9.70602 32.3594 9.66867 32.3519 9.63383 32.3375C9.59899 32.3231 9.56733 32.3019 9.54066 32.2752C9.51399 32.2486 9.49284 32.2169 9.4784 32.1821C9.46397 32.1472 9.45654 32.1099 9.45654 32.0722V12.2872C9.45654 12.2495 9.46397 12.2121 9.4784 12.1773C9.49284 12.1424 9.51399 12.1108 9.54066 12.0841C9.56733 12.0574 9.59899 12.0363 9.63383 12.0219C9.66867 12.0074 9.70602 12 9.74373 12H39.2268C39.303 12 39.376 12.0303 39.4299 12.0841C39.4837 12.138 39.514 12.211 39.514 12.2872V32.0722C39.514 32.1483 39.4837 32.2214 39.4299 32.2752C39.376 32.3291 39.303 32.3594 39.2268 32.3594ZM10.0309 31.785H38.9396V12.5744H10.0309V31.785Z" fill="#1E1838" stroke="#1E1838" stroke-width="0.5"/>
<path d="M39.8586 36H9.10751C8.54892 35.9988 8.01355 35.7764 7.61857 35.3814C7.22358 34.9864 7.00117 34.4511 7 33.8925V32.567C7.00117 32.3545 7.0864 32.1511 7.23708 32.0013C7.38775 31.8514 7.59162 31.7673 7.80412 31.7673H41.1664C41.3789 31.7673 41.5828 31.8514 41.7335 32.0013C41.8841 32.1511 41.9694 32.3545 41.9705 32.567V33.8925C41.9694 34.4518 41.7464 34.9879 41.3504 35.383C40.9545 35.7781 40.418 36 39.8586 36ZM7.80412 32.3594C7.77416 32.3588 7.74439 32.3642 7.71654 32.3752C7.68869 32.3863 7.66332 32.4028 7.64193 32.4238C7.62053 32.4447 7.60354 32.4698 7.59194 32.4974C7.58034 32.525 7.57437 32.5547 7.57437 32.5847V33.9102C7.58245 34.3118 7.7474 34.6943 8.03393 34.9759C8.32045 35.2575 8.70579 35.4157 9.10751 35.4168H39.8586C40.2656 35.4168 40.6561 35.2554 40.9443 34.968C41.2325 34.6806 41.395 34.2907 41.3962 33.8836V32.5582C41.395 32.498 41.3703 32.4407 41.3273 32.3986C41.2844 32.3564 41.2266 32.3328 41.1664 32.3328L7.80412 32.3594Z" fill="#1E1838" stroke="#1E1838" stroke-width="0.5"/>
<path d="M24.4831 35.2224C24.2209 35.2224 23.9646 35.1447 23.7467 34.999C23.5287 34.8534 23.3588 34.6464 23.2585 34.4042C23.1582 34.162 23.1319 33.8954 23.1831 33.6383C23.2342 33.3812 23.3604 33.145 23.5458 32.9597C23.7312 32.7743 23.9674 32.6481 24.2245 32.5969C24.4816 32.5458 24.7481 32.572 24.9903 32.6723C25.2325 32.7727 25.4395 32.9425 25.5852 33.1605C25.7308 33.3785 25.8086 33.6348 25.8086 33.8969C25.8086 34.2485 25.6689 34.5856 25.4203 34.8342C25.1718 35.0828 24.8346 35.2224 24.4831 35.2224ZM24.4831 33.137C24.3338 33.1379 24.1882 33.1829 24.0645 33.2664C23.9409 33.35 23.8447 33.4683 23.7882 33.6064C23.7317 33.7446 23.7174 33.8963 23.747 34.0426C23.7767 34.1889 23.849 34.3231 23.9548 34.4283C24.0607 34.5335 24.1953 34.605 24.3417 34.6338C24.4881 34.6626 24.6398 34.6474 24.7776 34.5901C24.9154 34.5328 25.0332 34.4359 25.116 34.3118C25.1988 34.1876 25.243 34.0417 25.243 33.8925C25.2418 33.6917 25.1613 33.4996 25.0189 33.358C24.8765 33.2164 24.6839 33.137 24.4831 33.137Z" fill="#1E1838" stroke="#1E1838" stroke-width="0.5"/>
<path d="M31.2519 16.8336H28.7379C28.6617 16.8336 28.5887 16.8033 28.5348 16.7495C28.4809 16.6956 28.4507 16.6226 28.4507 16.5464C28.4507 16.4702 28.4809 16.3972 28.5348 16.3433C28.5887 16.2895 28.6617 16.2592 28.7379 16.2592H31.2519C31.328 16.2592 31.4011 16.2895 31.4549 16.3433C31.5088 16.3972 31.539 16.4702 31.539 16.5464C31.539 16.6226 31.5088 16.6956 31.4549 16.7495C31.4011 16.8033 31.328 16.8336 31.2519 16.8336Z" fill="#1E1838" stroke="#1E1838" stroke-width="0.5"/>
<path d="M31.2519 19.9926H22.5788C22.5026 19.9926 22.4296 19.9624 22.3757 19.9085C22.3219 19.8547 22.2916 19.7816 22.2916 19.7055C22.2916 19.6293 22.3219 19.5562 22.3757 19.5024C22.4296 19.4485 22.5026 19.4183 22.5788 19.4183H31.2519C31.328 19.4183 31.4011 19.4485 31.4549 19.5024C31.5088 19.5562 31.539 19.6293 31.539 19.7055C31.539 19.7816 31.5088 19.8547 31.4549 19.9085C31.4011 19.9624 31.328 19.9926 31.2519 19.9926Z" fill="#1E1838" stroke="#1E1838" stroke-width="0.5"/>
<path d="M22.5434 23.1517H17.7187C17.6425 23.1517 17.5695 23.1214 17.5156 23.0676C17.4618 23.0137 17.4315 22.9407 17.4315 22.8645C17.4315 22.7884 17.4618 22.7153 17.5156 22.6614C17.5695 22.6076 17.6425 22.5773 17.7187 22.5773H22.5434C22.6196 22.5773 22.6927 22.6076 22.7465 22.6614C22.8004 22.7153 22.8306 22.7884 22.8306 22.8645C22.8306 22.9407 22.8004 23.0137 22.7465 23.0676C22.6927 23.1214 22.6196 23.1517 22.5434 23.1517Z" fill="#1E1838" stroke="#1E1838" stroke-width="0.5"/>
<path d="M31.2518 26.3152H17.7187C17.6481 26.3064 17.5831 26.2722 17.536 26.2189C17.4889 26.1656 17.4629 26.0969 17.4629 26.0258C17.4629 25.9547 17.4889 25.886 17.536 25.8327C17.5831 25.7794 17.6481 25.7451 17.7187 25.7364H31.2518C31.3224 25.7451 31.3874 25.7794 31.4345 25.8327C31.4816 25.886 31.5076 25.9547 31.5076 26.0258C31.5076 26.0969 31.4816 26.1656 31.4345 26.2189C31.3874 26.2722 31.3224 26.3064 31.2518 26.3152Z" fill="#1E1838" stroke="#1E1838" stroke-width="0.5"/>
<path d="M31.2518 29.4742H17.7187C17.6425 29.4742 17.5695 29.444 17.5156 29.3901C17.4618 29.3362 17.4315 29.2632 17.4315 29.187C17.4315 29.1109 17.4618 29.0378 17.5156 28.984C17.5695 28.9301 17.6425 28.8998 17.7187 28.8998H31.2518C31.328 28.8998 31.4011 28.9301 31.4549 28.984C31.5088 29.0378 31.539 29.1109 31.539 29.187C31.539 29.2632 31.5088 29.3362 31.4549 29.3901C31.4011 29.444 31.328 29.4742 31.2518 29.4742Z" fill="#1E1838" stroke="#1E1838" stroke-width="0.5"/>
<path d="M24.8895 16.8336H17.7187C17.6425 16.8336 17.5695 16.8033 17.5156 16.7495C17.4618 16.6956 17.4315 16.6226 17.4315 16.5464C17.4315 16.4702 17.4618 16.3972 17.5156 16.3433C17.5695 16.2895 17.6425 16.2592 17.7187 16.2592H24.8895C24.9657 16.2592 25.0388 16.2895 25.0926 16.3433C25.1465 16.3972 25.1767 16.4702 25.1767 16.5464C25.1767 16.6226 25.1465 16.6956 25.0926 16.7495C25.0388 16.8033 24.9657 16.8336 24.8895 16.8336Z" fill="#1E1838" stroke="#1E1838" stroke-width="0.5"/>
<path d="M19.7865 19.9926H17.7187C17.6425 19.9926 17.5695 19.9624 17.5156 19.9085C17.4618 19.8547 17.4315 19.7816 17.4315 19.7055C17.4315 19.6293 17.4618 19.5562 17.5156 19.5024C17.5695 19.4485 17.6425 19.4183 17.7187 19.4183H19.7865C19.8626 19.4183 19.9357 19.4485 19.9895 19.5024C20.0434 19.5562 20.0736 19.6293 20.0736 19.7055C20.0736 19.7816 20.0434 19.8547 19.9895 19.9085C19.9357 19.9624 19.8626 19.9926 19.7865 19.9926Z" fill="#1E1838" stroke="#1E1838" stroke-width="0.5"/>
<path d="M31.2518 23.1517H24.567C24.4908 23.1517 24.4178 23.1214 24.3639 23.0676C24.31 23.0137 24.2798 22.9407 24.2798 22.8645C24.2798 22.7884 24.31 22.7153 24.3639 22.6614C24.4178 22.6076 24.4908 22.5773 24.567 22.5773H31.2518C31.328 22.5773 31.401 22.6076 31.4549 22.6614C31.5087 22.7153 31.539 22.7884 31.539 22.8645C31.539 22.9407 31.5087 23.0137 31.4549 23.0676C31.401 23.1214 31.328 23.1517 31.2518 23.1517Z" fill="#1E1838" stroke="#1E1838" stroke-width="0.5"/>
</svg>
