<svg width="23" height="21" viewBox="0 0 23 21" fill="none" xmlns="http://www.w3.org/2000/svg">
<path d="M12.1904 0.906494V18.9065H5.19043C4.92521 18.9065 4.67086 18.8011 4.48332 18.6136C4.29579 18.4261 4.19043 18.1717 4.19043 17.9065V1.90649C4.19043 1.64128 4.29579 1.38692 4.48332 1.19939C4.67086 1.01185 4.92521 0.906494 5.19043 0.906494H12.1904ZM22.1904 10.9065V17.9065C22.1904 18.1717 22.0851 18.4261 21.8975 18.6136C21.71 18.8011 21.4556 18.9065 21.1904 18.9065H14.1904V10.9065H22.1904ZM21.1904 0.906494C21.4556 0.906494 21.71 1.01185 21.8975 1.19939C22.0851 1.38692 22.1904 1.64128 22.1904 1.90649V8.90649H14.1904V0.906494H21.1904Z" fill="#1E1838"/>
<circle cx="4.19043" cy="16.9065" r="4" fill="white"/>
<path d="M4.56543 11.9065C3.40944 11.9204 2.30473 12.3859 1.48726 13.2033C0.66979 14.0208 0.204376 15.1255 0.19043 16.2815C0.204376 17.4375 0.66979 18.5422 1.48726 19.3597C2.30473 20.1771 3.40944 20.6425 4.56543 20.6565C5.72142 20.6425 6.82613 20.1771 7.6436 19.3597C8.46107 18.5422 8.92648 17.4375 8.94043 16.2815C8.92648 15.1255 8.46107 14.0208 7.6436 13.2033C6.82613 12.3859 5.72142 11.9204 4.56543 11.9065ZM7.06543 16.594H4.87793V18.7815H4.25293V16.594H2.06543V15.969H4.25293V13.7815H4.87793V15.969H7.06543V16.594Z" fill="#56526A"/>
</svg>
