<svg width="17" height="22" viewBox="0 0 17 22" fill="none" xmlns="http://www.w3.org/2000/svg">
<path d="M16.7797 5.76406L11.7359 0.720313C11.5953 0.579688 11.4055 0.5 11.2062 0.5H1.25C0.835156 0.5 0.5 0.835156 0.5 1.25V20.75C0.5 21.1648 0.835156 21.5 1.25 21.5H16.25C16.6648 21.5 17 21.1648 17 20.75V6.29609C17 6.09687 16.9203 5.90469 16.7797 5.76406ZM15.2703 6.64062H10.8594V2.22969L15.2703 6.64062ZM15.3125 19.8125H2.1875V2.1875H9.26562V7.25C9.26562 7.51107 9.36934 7.76145 9.55394 7.94606C9.73855 8.13066 9.98893 8.23438 10.25 8.23438H15.3125V19.8125ZM9.5 10.0625C9.5 9.95938 9.41562 9.875 9.3125 9.875H8.1875C8.08437 9.875 8 9.95938 8 10.0625V12.5938H5.46875C5.36562 12.5938 5.28125 12.6781 5.28125 12.7812V13.9062C5.28125 14.0094 5.36562 14.0938 5.46875 14.0938H8V16.625C8 16.7281 8.08437 16.8125 8.1875 16.8125H9.3125C9.41562 16.8125 9.5 16.7281 9.5 16.625V14.0938H12.0312C12.1344 14.0938 12.2188 14.0094 12.2188 13.9062V12.7812C12.2188 12.6781 12.1344 12.5938 12.0312 12.5938H9.5V10.0625Z" fill="#1E1838"/>
</svg>
