<svg width="25" height="25" viewBox="0 0 25 25" fill="none" xmlns="http://www.w3.org/2000/svg">
<path d="M11.0713 3.90649V21.9065H4.07129C3.80607 21.9065 3.55172 21.8011 3.36418 21.6136C3.17665 21.4261 3.07129 21.1717 3.07129 20.9065V4.90649C3.07129 4.64128 3.17665 4.38692 3.36418 4.19939C3.55172 4.01185 3.80607 3.90649 4.07129 3.90649H11.0713ZM21.0713 13.9065V20.9065C21.0713 21.1717 20.9659 21.4261 20.7784 21.6136C20.5909 21.8011 20.3365 21.9065 20.0713 21.9065H13.0713V13.9065H21.0713ZM20.0713 3.90649C20.3365 3.90649 20.5909 4.01185 20.7784 4.19939C20.9659 4.38692 21.0713 4.64128 21.0713 4.90649V11.9065H13.0713V3.90649H20.0713Z" fill="#1E1838"/>
</svg>
