<svg width="10" height="14" viewBox="0 0 10 14" fill="none" xmlns="http://www.w3.org/2000/svg">
<path d="M0.298495 1.05379C0.34953 0.91138 0.434901 0.789872 0.543966 0.704409C0.653031 0.618946 0.780967 0.573307 0.911828 0.573181H9.24516C9.42197 0.573181 9.59154 0.65619 9.71657 0.803946C9.84159 0.951702 9.91183 1.1521 9.91183 1.36106C9.91183 1.57002 9.84159 1.77042 9.71657 1.91817C9.59154 2.06593 9.42197 2.14894 9.24516 2.14894H2.48516L5.78516 6.17894C5.90055 6.32003 5.96724 6.50694 5.97217 6.70308C5.9771 6.89922 5.91993 7.09048 5.81183 7.23942L2.36116 11.9974H9.24516C9.42197 11.9974 9.59154 12.0804 9.71657 12.2282C9.84159 12.3759 9.91183 12.5763 9.91183 12.7853C9.91183 12.9943 9.84159 13.1947 9.71657 13.3424C9.59154 13.4902 9.42197 13.5732 9.24516 13.5732H0.911828C0.784385 13.5732 0.65961 13.53 0.552285 13.4488C0.444959 13.3676 0.35958 13.2517 0.306263 13.1149C0.252946 12.9781 0.233925 12.8261 0.251453 12.6769C0.268981 12.5278 0.322323 12.3876 0.405161 12.2732L4.4045 6.75882L0.431828 1.90864C0.341104 1.79731 0.28009 1.65691 0.256382 1.50491C0.232674 1.35291 0.24732 1.19602 0.298495 1.05379Z" fill="#1E1838"/>
</svg>
