<svg width="20" height="15" viewBox="0 0 20 15" fill="none" xmlns="http://www.w3.org/2000/svg">
<path opacity="0.7" d="M15 7.50053H15.5V7.00053V4.50053H16.5V7.00053V7.50053H17H19.5V8.50053H17H16.5V9.00053V11.5005H15.5V9.00053V8.50053H15H12.5V7.50053H15ZM2.49986 4.01217L2.50014 4.00053L2.49986 3.98889C2.48912 3.52783 2.57202 3.06939 2.74353 2.6413C2.91504 2.2132 3.1716 1.82434 3.49771 1.49824C3.82381 1.17213 4.21267 0.915569 4.64077 0.744058C5.06886 0.572547 5.5273 0.489654 5.98836 0.500395L6 0.500666L6.01164 0.500395C6.4727 0.489654 6.93114 0.572547 7.35923 0.744058C7.78733 0.915569 8.17619 1.17213 8.50229 1.49824C8.8284 1.82434 9.08496 2.2132 9.25647 2.6413C9.42798 3.06939 9.51088 3.52783 9.50014 3.98889L9.49986 4.00053L9.50014 4.01217C9.51088 4.47323 9.42798 4.93167 9.25647 5.35977C9.08496 5.78786 8.8284 6.17672 8.50229 6.50283C8.17619 6.82893 7.78733 7.08549 7.35923 7.257C6.93114 7.42851 6.4727 7.51141 6.01164 7.50067L6 7.50039L5.98836 7.50067C5.5273 7.51141 5.06886 7.42851 4.64077 7.257C4.21267 7.08549 3.82381 6.82893 3.49771 6.50283C3.1716 6.17672 2.91504 5.78786 2.74353 5.35977C2.57202 4.93167 2.48912 4.47323 2.49986 4.01217ZM8.3404 4.96098C8.45858 4.65498 8.51301 4.32815 8.50046 4.00053C8.51301 3.67291 8.45858 3.34608 8.3404 3.04008C8.21932 2.72656 8.03401 2.44183 7.79636 2.20417C7.5587 1.96652 7.27397 1.78121 6.96045 1.66013C6.65445 1.54195 6.32762 1.48752 6 1.50007C5.67238 1.48752 5.34555 1.54195 5.03955 1.66013C4.72603 1.78121 4.4413 1.96652 4.20364 2.20417C3.96599 2.44183 3.78068 2.72656 3.6596 3.04008C3.54142 3.34608 3.48699 3.67291 3.49954 4.00053C3.48699 4.32815 3.54142 4.65498 3.6596 4.96098C3.78068 5.2745 3.96599 5.55924 4.20364 5.79689C4.4413 6.03454 4.72603 6.21985 5.03955 6.34093C5.34555 6.45911 5.67238 6.51354 6 6.50099C6.32762 6.51354 6.65445 6.45911 6.96045 6.34093C7.27397 6.21985 7.5587 6.03454 7.79636 5.79689C8.03401 5.55924 8.21932 5.2745 8.3404 4.96098ZM2.52513 11.5257C1.86875 12.182 1.5 13.0723 1.5 14.0005V14.5005H0.5V14.0005C0.5 12.8071 0.974106 11.6625 1.81802 10.8186C2.66193 9.97464 3.80653 9.50053 5 9.50053H7C7.59095 9.50053 8.17611 9.61693 8.72208 9.84307C9.26804 10.0692 9.76412 10.4007 10.182 10.8186C10.5998 11.2364 10.9313 11.7325 11.1575 12.2785C11.3836 12.8244 11.5 13.4096 11.5 14.0005V14.5005H10.5V14.0005C10.5 13.0723 10.1313 12.182 9.47487 11.5257C8.8185 10.8693 7.92826 10.5005 7 10.5005H5C4.07174 10.5005 3.1815 10.8693 2.52513 11.5257Z" stroke="#1E1838"/>
</svg>
